<?xml version="1.0" encoding="UTF-8"?>
<svg id="Layer_1" xmlns="http://www.w3.org/2000/svg" version="1.1" viewBox="0 0 800 800">
  <!-- Generator: Adobe Illustrator 30.1.0, SVG Export Plug-In . SVG Version: 2.1.1 Build 136)  -->
  <defs>
    <style>
      .st0 {
        fill: #a4b3dd;
        fill-rule: evenodd;
      }
    </style>
  </defs>
  <path class="st0" d="M115.48,684.52c48.82,48.82,127.38,48.82,284.52,48.82s235.7,0,284.52-48.82c48.82-48.81,48.82-127.38,48.82-284.52s0-235.7-48.82-284.52c-48.81-48.82-127.38-48.82-284.52-48.82s-235.7,0-284.52,48.82c-48.82,48.82-48.82,127.38-48.82,284.52s0,235.7,48.82,284.52h0ZM625,533.33c0,13.81-11.19,25-25,25H200c-13.81,0-25-11.19-25-25s11.19-25,25-25h400c13.81,0,25,11.19,25,25ZM600,425c13.81,0,25-11.19,25-25s-11.19-25-25-25H200c-13.81,0-25,11.19-25,25s11.19,25,25,25h400ZM625,266.67c0,13.81-11.19,25-25,25H200c-13.81,0-25-11.19-25-25s11.19-25,25-25h400c13.81,0,25,11.19,25,25Z"/>
</svg>