<?xml version="1.0" encoding="UTF-8"?>
<svg id="Layer_1" xmlns="http://www.w3.org/2000/svg" version="1.1" viewBox="0 0 800 800">
  <!-- Generator: Adobe Illustrator 30.1.0, SVG Export Plug-In . SVG Version: 2.1.1 Build 136)  -->
  <defs>
    <style>
      .st0 {
        fill: #5769a7;
      }
    </style>
  </defs>
  <g id="Lager_94">
    <path id="Path_70" class="st0" d="M312.9,112.72c-48.22,158.51,41.19,326.1,199.7,374.33,14.69,4.47,29.7,7.8,44.9,9.97,14.08,1.97,28.28,2.97,42.5,2.97,29.56.04,58.96-4.29,87.25-12.85-34.85,112.75-132.09,194.94-249.07,210.52-12.67,1.54-25.41,2.32-38.18,2.33-165.69.36-300.29-133.66-300.65-299.34-.29-132.63,86.55-249.71,213.55-287.93M400,0c-18.5,0-36.97,1.26-55.3,3.75C125.86,33.93-27.09,235.8,3.09,454.64c27.33,198.18,196.86,345.69,396.91,345.36,16.8,0,33.58-1.03,50.25-3.07,179.09-22.99,320.73-162.84,346-341.63,2.55-18.79,3.8-37.74,3.75-56.7-.17-27.02-22.22-48.78-49.24-48.61-.25,0-.51,0-.76.01-11.1.01-21.89,3.64-30.75,10.33-34.41,25.79-76.25,39.71-119.25,39.67-9.62,0-19.22-.67-28.75-2-109.26-15.74-185.08-117.07-169.34-226.33,4.76-33.07,17.74-64.41,37.74-91.17,16.06-23.54,10-55.64-13.54-71.71-7.34-5.01-15.86-8.04-24.71-8.79h-1.4Z"/>
  </g>
</svg>